<?xml version="1.0" encoding="utf-8"?>
<!-- Generator: Adobe Illustrator 16.0.0, SVG Export Plug-In . SVG Version: 6.00 Build 0)  -->
<!DOCTYPE svg PUBLIC "-//W3C//DTD SVG 1.1//EN" "http://www.w3.org/Graphics/SVG/1.1/DTD/svg11.dtd">
<svg version="1.1" id="Layer_2" xmlns="http://www.w3.org/2000/svg" xmlns:xlink="http://www.w3.org/1999/xlink" x="0px" y="0px"
	 width="48px" height="48px" viewBox="0 0 48 48" enable-background="new 0 0 48 48" xml:space="preserve">
<polygon fill="#FFFFFF" points="13.087,11.893 16.316,11.893 16.316,13.508 19.544,13.508 19.544,15.12 22.772,15.12 22.772,16.738 
	25.963,16.738 25.963,18.353 29.191,18.353 29.191,19.967 32.42,19.967 32.42,21.583 35.646,21.583 35.646,23.188 38.913,23.188 
	38.913,24.821 35.646,24.821 35.646,26.422 32.42,26.422 32.42,28.036 29.191,28.036 29.191,29.651 25.963,29.651 25.963,31.267 
	22.772,31.267 22.772,32.881 19.544,32.881 19.544,34.5 16.316,34.496 16.316,36.115 13.087,36.115 "/>
</svg>
